HIERARCHY
ROOT joint_Root
{
	OFFSET 0.0 0.0 0.0
	CHANNELS 6 Xposition Yposition Zposition Zrotation Xrotation Yrotation 
	JOINT Hips
	{
		OFFSET -17.1583 93.1646 452.98
		CHANNELS 6 Xposition Yposition Zposition Zrotation Xrotation Yrotation 
		JOINT Spine
		{
			OFFSET 15.7357 0.0 0.0
			CHANNELS 6 Xposition Yposition Zposition Zrotation Xrotation Yrotation 
			JOINT Chest
			{
				OFFSET 8.98455 -0.406207 0.0
				CHANNELS 6 Xposition Yposition Zposition Zrotation Xrotation Yrotation 
				JOINT Neck
				{
					OFFSET 16.3773 0.0 0.0
					CHANNELS 6 Xposition Yposition Zposition Zrotation Xrotation Yrotation 
					JOINT Head
					{
						OFFSET 6.45672 0.0 0.0
						CHANNELS 6 Xposition Yposition Zposition Zrotation Xrotation Yrotation 
						End Site
						{
							OFFSET 0.0 0.0 0.0
						}
					}
				}
				JOINT Shoulder_L
				{
					OFFSET 12.9942 -0.242716 4.98039
					CHANNELS 6 Xposition Yposition Zposition Zrotation Xrotation Yrotation 
					JOINT UpperArm_L
					{
						OFFSET 5.34809 0.0 0.0
						CHANNELS 6 Xposition Yposition Zposition Zrotation Xrotation Yrotation 
						JOINT LowerArm_L
						{
							OFFSET 24.3286 1.87007e-05 0.0
							CHANNELS 6 Xposition Yposition Zposition Zrotation Xrotation Yrotation 
							JOINT Hand_L
							{
								OFFSET 22.2916 0.0 0.0
								CHANNELS 6 Xposition Yposition Zposition Zrotation Xrotation Yrotation 
								End Site
								{
									OFFSET 0.0 0.0 0.0
								}
							}
						}
					}
				}
				JOINT Shoulder_R
				{
					OFFSET 12.9945 -0.242716 -4.98039
					CHANNELS 6 Xposition Yposition Zposition Zrotation Xrotation Yrotation 
					JOINT UpperArm_R
					{
						OFFSET -5.34813 0.0 0.0
						CHANNELS 6 Xposition Yposition Zposition Zrotation Xrotation Yrotation 
						JOINT LowerArm_R
						{
							OFFSET -24.3289 0.000322201 0.0
							CHANNELS 6 Xposition Yposition Zposition Zrotation Xrotation Yrotation 
							JOINT Hand_R
							{
								OFFSET -22.2915 -0.000108084 0.0
								CHANNELS 6 Xposition Yposition Zposition Zrotation Xrotation Yrotation 
								End Site
								{
									OFFSET 0.0 0.0 0.0
								}
							}
						}
					}
				}
			}
		}
		JOINT UpperLeg_L
		{
			OFFSET -2.19248 -6.46944 0.0
			CHANNELS 6 Xposition Yposition Zposition Zrotation Xrotation Yrotation 
			JOINT LowerLeg_L
			{
				OFFSET 39.0811 0.0 -1.23785e-05
				CHANNELS 6 Xposition Yposition Zposition Zrotation Xrotation Yrotation 
				JOINT Foot_L
				{
					OFFSET 40.9854 0.0 -1.26872e-05
					CHANNELS 6 Xposition Yposition Zposition Zrotation Xrotation Yrotation 
					JOINT Toes_L
					{
						OFFSET 11.7543 0.0 0.0
						CHANNELS 6 Xposition Yposition Zposition Zrotation Xrotation Yrotation 
						End Site
						{
							OFFSET 0.0 0.0 0.0
						}
					}
				}
			}
		}
		JOINT UpperLeg_R
		{
			OFFSET -2.19251 6.46944 0.0
			CHANNELS 6 Xposition Yposition Zposition Zrotation Xrotation Yrotation 
			JOINT LowerLeg_R
			{
				OFFSET -39.0811 -0.00228153 -0.0401928
				CHANNELS 6 Xposition Yposition Zposition Zrotation Xrotation Yrotation 
				JOINT Foot_R
				{
					OFFSET -40.9854 0.0 0.0
					CHANNELS 6 Xposition Yposition Zposition Zrotation Xrotation Yrotation 
					JOINT Toes_R
					{
						OFFSET -11.7543 0.0 0.0
						CHANNELS 6 Xposition Yposition Zposition Zrotation Xrotation Yrotation 
						End Site
						{
							OFFSET 0.0 0.0 0.0
						}
					}
				}
			}
		}
	}
}
MOTION
Frames:	7
Frame Time:	0.0333333
0.000000 0.000000 0.000000 0.000000 0.000000 -0.000000 -4.463020 92.941400 -1.028830 86.425900 0.972280 4.603890 15.735700 0.000005 -0.000001 70.726500 85.994700 -68.270300 8.984550 -0.406207 -0.000000 -0.138750 -2.812810 4.906740 16.377300 -0.000001 -0.000001 5.602630 2.130610 -0.796951 6.456720 -0.000001 -0.000000 -9.671860 2.953490 -1.007310 12.994200 -0.242716 4.980390 -93.233600 9.670570 -71.411100 5.348090 -0.000007 -0.000001 -73.948800 27.706900 0.185828 24.328600 0.000019 0.000005 12.190500 27.433200 -25.122300 22.291600 -0.000001 0.000005 -2.986220 5.089560 5.351640 12.994500 -0.242716 -4.980390 87.311800 7.383060 -69.928600 -5.348130 -0.000001 -0.000004 -66.302700 33.228300 -6.207790 -24.328900 0.000322 -0.000009 0.421539 1.000820 -22.873100 -22.291500 -0.000108 -0.000004 -6.021750 5.179170 3.255620 -2.192480 -6.469440 -0.000000 -168.142000 -8.236330 1.482760 39.081100 -0.000007 -0.000012 -0.004553 0.015454 16.415300 40.985400 -0.000006 -0.000013 -2.839710 18.449800 -68.195500 11.754300 -0.000000 0.000003 -0.001423 0.188872 -8.914770 -2.192510 6.469440 -0.000001 -179.342000 5.437650 -177.243000 -39.081100 -0.002282 -0.040193 0.031772 -0.111440 14.317000 -40.985400 0.000008 0.000006 -2.324720 9.360670 -68.311400 -11.754300 -0.000006 -0.000006 -0.008240 0.257648 -6.109200
0.000000 0.000000 0.000000 0.000000 0.000000 -0.000000 -4.432870 92.970000 -0.975754 86.440500 1.880230 4.328760 15.735700 0.000005 -0.000001 67.142500 85.999900 -64.716900 8.984550 -0.406207 -0.000000 -0.319391 -3.277930 4.840410 16.377300 -0.000001 -0.000001 5.034090 2.105250 -1.355620 6.456720 -0.000001 -0.000000 -9.600850 3.032490 -2.046430 12.994200 -0.242716 4.980390 -93.193700 9.596250 -71.494000 5.348090 -0.000007 -0.000001 -73.872600 26.407200 0.380776 24.328600 0.000019 0.000005 12.229600 27.013900 -25.510500 22.291600 -0.000001 0.000005 -3.394400 5.096280 5.198640 12.994500 -0.242716 -4.980390 87.123500 7.702180 -69.448400 -5.348130 -0.000001 -0.000004 -64.890000 31.471300 -4.297860 -24.328900 0.000322 -0.000009 0.497152 0.821078 -31.290800 -22.291500 -0.000108 -0.000004 -12.007300 5.068040 5.866850 -2.192480 -6.469440 -0.000000 -168.236000 -7.937980 1.083520 39.081100 -0.000007 -0.000012 -0.004677 0.016040 16.255000 40.985400 -0.000006 -0.000013 -2.783670 18.954200 -68.151100 11.754300 -0.000000 0.000003 -0.001347 0.187850 -8.956300 -2.192510 6.469440 -0.000001 -179.508000 6.481110 -177.232000 -39.081100 -0.002282 -0.040193 0.025053 -0.087579 13.929200 -40.985400 0.000008 0.000006 -2.741610 9.613110 -68.059700 -11.754300 -0.000006 -0.000006 -0.008245 0.257686 -6.107670
0.000000 0.000000 0.000000 0.000000 0.000000 -0.000000 -4.381300 92.998100 -0.904824 86.393000 2.637940 3.977770 15.735700 0.000005 -0.000001 64.222500 86.051500 -61.869900 8.984550 -0.406207 -0.000000 -0.576105 -3.604630 4.685850 16.377300 -0.000001 -0.000001 4.573790 1.977640 -2.031050 6.456720 -0.000001 -0.000000 -9.847210 3.186230 -3.452310 12.994200 -0.242716 4.980390 -93.207700 9.680860 -71.568300 5.348090 -0.000007 -0.000001 -73.212100 25.140400 0.695913 24.328600 0.000019 0.000005 12.537600 26.605000 -26.407500 22.291600 -0.000001 0.000005 -3.669920 5.104740 5.004800 12.994500 -0.242716 -4.980390 87.083600 7.515840 -68.720000 -5.348130 -0.000001 -0.000004 -63.200100 28.499300 -2.020310 -24.328900 0.000322 -0.000009 -1.246530 -1.331780 -42.975800 -22.291500 -0.000108 -0.000004 -18.403600 4.942000 8.556150 -2.192480 -6.469440 -0.000000 -168.243000 -7.934990 0.646445 39.081100 -0.000007 -0.000012 -0.006026 0.020815 16.143900 40.985400 -0.000006 -0.000013 -2.692590 19.584900 -68.159400 11.754300 -0.000000 0.000003 -0.001528 0.190268 -8.858010 -2.192510 6.469440 -0.000001 -179.571000 7.108580 -177.275000 -39.081100 -0.002282 -0.040193 0.017267 -0.058174 13.469900 -40.985400 0.000008 0.000006 -3.377650 9.623540 -67.692000 -11.754300 -0.000006 -0.000006 -0.008199 0.257315 -6.122820
0.000000 0.000000 0.000000 0.000000 0.000000 -0.000000 -4.308410 93.031500 -0.858176 86.423900 3.182660 3.551020 15.735700 0.000005 -0.000001 61.643500 86.112200 -59.518500 8.984550 -0.406207 -0.000000 -0.848343 -3.851950 4.220850 16.377300 -0.000001 -0.000001 3.831630 1.840230 -2.714320 6.456720 -0.000001 -0.000000 -9.934730 3.322310 -4.845020 12.994200 -0.242716 4.980390 -93.277900 9.892290 -71.563200 5.348090 -0.000007 -0.000001 -71.917000 23.480400 1.031550 24.328600 0.000019 0.000005 12.850000 25.907000 -27.569000 22.291600 -0.000001 0.000005 -3.587180 5.111390 4.851220 12.994500 -0.242716 -4.980390 87.065900 7.334260 -68.124600 -5.348130 -0.000001 -0.000004 -60.034800 25.343000 -0.024312 -24.328900 0.000322 -0.000009 -2.966150 -1.823210 -58.441900 -22.291500 -0.000108 -0.000004 -22.809200 4.801010 11.308600 -2.192480 -6.469440 -0.000000 -168.364000 -7.991320 0.224151 39.081100 -0.000007 -0.000012 -0.008168 0.028612 15.930800 40.985400 -0.000006 -0.000013 -2.622010 20.046500 -68.132200 11.754300 -0.000000 0.000003 -0.001573 0.190865 -8.833730 -2.192510 6.469440 -0.000001 -179.660000 7.564200 -177.421000 -39.081100 -0.002282 -0.040193 0.013545 -0.044162 13.019200 -40.985400 0.000008 0.000006 -3.670640 9.600780 -67.457600 -11.754300 -0.000006 -0.000006 -0.008426 0.259139 -6.048290
0.000000 0.000000 0.000000 0.000000 0.000000 -0.000000 -4.229760 93.051600 -0.792321 86.450900 3.478250 3.156270 15.735700 0.000005 -0.000001 60.011400 86.193800 -58.207100 8.984550 -0.406207 -0.000000 -1.108390 -3.943740 3.570260 16.377300 -0.000001 -0.000001 3.175970 1.730270 -3.505150 6.456720 -0.000001 -0.000000 -10.281500 3.331260 -6.233020 12.994200 -0.242716 4.980390 -93.306200 9.979400 -71.563900 5.348090 -0.000007 -0.000001 -70.585400 21.214400 1.282100 24.328600 0.000019 0.000005 13.042900 25.498900 -28.285600 22.291600 -0.000001 0.000005 -2.425280 5.113390 4.805630 12.994500 -0.242716 -4.980390 87.065700 7.148830 -67.613800 -5.348130 -0.000001 -0.000004 -54.882100 21.210400 0.607147 -24.328900 0.000322 -0.000009 -2.213480 -0.534389 -76.460400 -22.291500 -0.000108 -0.000004 -23.660600 4.709940 12.975900 -2.192480 -6.469440 -0.000000 -168.470000 -8.098590 -0.112768 39.081100 -0.000007 -0.000012 -0.011826 0.041886 15.766000 40.985400 -0.000006 -0.000013 -2.557100 20.351000 -68.091000 11.754300 -0.000000 0.000003 -0.001483 0.189668 -8.882390 -2.192510 6.469440 -0.000001 -179.738000 7.924860 -177.589000 -39.081100 -0.002282 -0.040193 0.011997 -0.038477 12.687800 -40.985400 0.000008 0.000006 -3.818280 9.700220 -67.316500 -11.754300 -0.000006 -0.000006 -0.008383 0.258794 -6.062390
0.000000 0.000000 0.000000 0.000000 0.000000 -0.000000 -4.158290 93.082900 -0.737707 86.466800 3.565560 2.752860 15.735700 0.000005 -0.000001 58.645000 86.306200 -57.274100 8.984550 -0.406207 -0.000000 -1.409280 -3.952940 2.693100 16.377300 -0.000001 -0.000001 2.503170 1.633460 -4.351960 6.456720 -0.000001 -0.000000 -10.604500 3.367900 -7.503300 12.994200 -0.242716 4.980390 -93.279200 9.844680 -71.473900 5.348090 -0.000007 -0.000001 -69.261100 18.536500 1.507670 24.328600 0.000019 0.000005 13.313000 25.536400 -28.763100 22.291600 -0.000001 0.000005 -1.191580 5.095560 5.214000 12.994500 -0.242716 -4.980390 87.180500 6.677160 -67.044600 -5.348130 -0.000001 -0.000004 -48.231600 14.721700 -1.382070 -24.328900 0.000322 -0.000009 -2.409680 0.146829 -93.439400 -22.291500 -0.000108 -0.000004 -21.460300 4.659240 13.879900 -2.192480 -6.469440 -0.000000 -168.595000 -8.148140 -0.373384 39.081100 -0.000007 -0.000012 -0.011848 0.042568 15.552300 40.985400 -0.000006 -0.000013 -2.531390 20.360800 -68.204100 11.754300 -0.000000 0.000003 -0.001877 0.194796 -8.673870 -2.192510 6.469440 -0.000001 -179.823000 8.163140 -177.763000 -39.081100 -0.002282 -0.040193 0.008471 -0.023559 12.298200 -40.985400 0.000008 0.000006 -4.263500 9.908470 -67.011900 -11.754300 -0.000006 -0.000006 -0.008516 0.259863 -6.018740
0.000000 0.000000 0.000000 0.000000 0.000000 -0.000000 -4.076010 93.119500 -0.659297 86.504500 3.424270 2.222670 15.735700 0.000005 -0.000001 57.341000 86.525300 -56.542400 8.984550 -0.406207 -0.000000 -1.889560 -3.816520 1.534370 16.377300 -0.000001 -0.000001 1.901550 1.650130 -5.138850 6.456720 -0.000001 -0.000000 -10.926900 3.493150 -8.600430 12.994200 -0.242716 4.980390 -93.260100 9.668320 -71.264900 5.348090 -0.000007 -0.000001 -67.684200 15.656200 1.720650 24.328600 0.000019 0.000005 13.293900 25.429200 -28.822000 22.291600 -0.000001 0.000005 -0.292986 5.075370 5.671870 12.994500 -0.242716 -4.980390 87.420600 6.011870 -66.725600 -5.348130 -0.000001 -0.000004 -41.393600 3.230650 -5.271470 -24.328900 0.000322 -0.000009 -4.792980 1.439750 -106.645000 -22.291500 -0.000108 -0.000004 -17.899900 4.660140 13.872300 -2.192480 -6.469440 -0.000000 -168.772000 -8.180800 -0.602562 39.081100 -0.000007 -0.000012 -0.011099 0.040958 15.162100 40.985400 -0.000006 -0.000013 -2.551350 20.141200 -68.163700 11.754300 -0.000000 0.000003 -0.001614 0.191404 -8.811820 -2.192510 6.469440 -0.000001 -179.912000 8.249600 -178.028000 -39.081100 -0.002282 -0.040193 0.005848 -0.011993 11.830300 -40.985400 0.000008 0.000006 -4.652850 10.200100 -66.661000 -11.754300 -0.000006 -0.000006 -0.008341 0.258460 -6.076040
